<svg id="visual" viewBox="0 0 960 200" width="960" height="200" xmlns="http://www.w3.org/2000/svg" xmlns:xlink="http://www.w3.org/1999/xlink" version="1.1"><path d="M0 71L22.8 69.7C45.7 68.3 91.3 65.7 137 64.2C182.7 62.7 228.3 62.3 274 63.8C319.7 65.3 365.3 68.7 411.2 69.2C457 69.7 503 67.3 548.8 64.7C594.7 62 640.3 59 686 59.2C731.7 59.3 777.3 62.7 823 65.5C868.7 68.3 914.3 70.7 937.2 71.8L960 73L960 0L937.2 0C914.3 0 868.7 0 823 0C777.3 0 731.7 0 686 0C640.3 0 594.7 0 548.8 0C503 0 457 0 411.2 0C365.3 0 319.7 0 274 0C228.3 0 182.7 0 137 0C91.3 0 45.7 0 22.8 0L0 0Z" fill="#eeded8"></path><path d="M0 50L22.8 48.3C45.7 46.7 91.3 43.3 137 42.7C182.7 42 228.3 44 274 46C319.7 48 365.3 50 411.2 49.3C457 48.7 503 45.3 548.8 47.7C594.7 50 640.3 58 686 60.7C731.7 63.3 777.3 60.7 823 56.5C868.7 52.3 914.3 46.7 937.2 43.8L960 41L960 0L937.2 0C914.3 0 868.7 0 823 0C777.3 0 731.7 0 686 0C640.3 0 594.7 0 548.8 0C503 0 457 0 411.2 0C365.3 0 319.7 0 274 0C228.3 0 182.7 0 137 0C91.3 0 45.7 0 22.8 0L0 0Z" fill="#e5b4a3"></path><path d="M0 30L22.8 30C45.7 30 91.3 30 137 33.5C182.7 37 228.3 44 274 47C319.7 50 365.3 49 411.2 46.3C457 43.7 503 39.3 548.8 37.3C594.7 35.3 640.3 35.7 686 37.5C731.7 39.3 777.3 42.7 823 42C868.7 41.3 914.3 36.7 937.2 34.3L960 32L960 0L937.2 0C914.3 0 868.7 0 823 0C777.3 0 731.7 0 686 0C640.3 0 594.7 0 548.8 0C503 0 457 0 411.2 0C365.3 0 319.7 0 274 0C228.3 0 182.7 0 137 0C91.3 0 45.7 0 22.8 0L0 0Z" fill="#d88974"></path><path d="M0 24L22.8 25.2C45.7 26.3 91.3 28.7 137 28C182.7 27.3 228.3 23.7 274 22.8C319.7 22 365.3 24 411.2 27C457 30 503 34 548.8 35C594.7 36 640.3 34 686 33C731.7 32 777.3 32 823 32.3C868.7 32.7 914.3 33.3 937.2 33.7L960 34L960 0L937.2 0C914.3 0 868.7 0 823 0C777.3 0 731.7 0 686 0C640.3 0 594.7 0 548.8 0C503 0 457 0 411.2 0C365.3 0 319.7 0 274 0C228.3 0 182.7 0 137 0C91.3 0 45.7 0 22.8 0L0 0Z" fill="#c85d4a"></path><path d="M0 18L22.8 17.2C45.7 16.3 91.3 14.7 137 13.2C182.7 11.7 228.3 10.3 274 9.8C319.7 9.3 365.3 9.7 411.2 10.3C457 11 503 12 548.8 14.3C594.7 16.7 640.3 20.3 686 21.8C731.7 23.3 777.3 22.7 823 21C868.7 19.3 914.3 16.7 937.2 15.3L960 14L960 0L937.2 0C914.3 0 868.7 0 823 0C777.3 0 731.7 0 686 0C640.3 0 594.7 0 548.8 0C503 0 457 0 411.2 0C365.3 0 319.7 0 274 0C228.3 0 182.7 0 137 0C91.3 0 45.7 0 22.8 0L0 0Z" fill="#b52725"></path></svg>