<svg id="visual" viewBox="0 0 960 200" width="960" height="200" xmlns="http://www.w3.org/2000/svg" xmlns:xlink="http://www.w3.org/1999/xlink" version="1.1"><path d="M0 67L22.8 66.7C45.7 66.3 91.3 65.7 137 65.2C182.7 64.7 228.3 64.3 274 65.7C319.7 67 365.3 70 411.2 69.2C457 68.3 503 63.7 548.8 60.3C594.7 57 640.3 55 686 57C731.7 59 777.3 65 823 66.7C868.7 68.3 914.3 65.7 937.2 64.3L960 63L960 0L937.2 0C914.3 0 868.7 0 823 0C777.3 0 731.7 0 686 0C640.3 0 594.7 0 548.8 0C503 0 457 0 411.2 0C365.3 0 319.7 0 274 0C228.3 0 182.7 0 137 0C91.3 0 45.7 0 22.8 0L0 0Z" fill="#c7e6ed"></path><path d="M0 48L22.8 47.7C45.7 47.3 91.3 46.7 137 46.8C182.7 47 228.3 48 274 51.2C319.7 54.3 365.3 59.7 411.2 59.5C457 59.3 503 53.7 548.8 51.5C594.7 49.3 640.3 50.7 686 52.8C731.7 55 777.3 58 823 58.7C868.7 59.3 914.3 57.7 937.2 56.8L960 56L960 0L937.2 0C914.3 0 868.7 0 823 0C777.3 0 731.7 0 686 0C640.3 0 594.7 0 548.8 0C503 0 457 0 411.2 0C365.3 0 319.7 0 274 0C228.3 0 182.7 0 137 0C91.3 0 45.7 0 22.8 0L0 0Z" fill="#a9dfec"></path><path d="M0 39L22.8 37.7C45.7 36.3 91.3 33.7 137 34.5C182.7 35.3 228.3 39.7 274 39.5C319.7 39.3 365.3 34.7 411.2 35.5C457 36.3 503 42.7 548.8 44.5C594.7 46.3 640.3 43.7 686 43.7C731.7 43.7 777.3 46.3 823 47.5C868.7 48.7 914.3 48.3 937.2 48.2L960 48L960 0L937.2 0C914.3 0 868.7 0 823 0C777.3 0 731.7 0 686 0C640.3 0 594.7 0 548.8 0C503 0 457 0 411.2 0C365.3 0 319.7 0 274 0C228.3 0 182.7 0 137 0C91.3 0 45.7 0 22.8 0L0 0Z" fill="#88d7eb"></path><path d="M0 22L22.8 23.5C45.7 25 91.3 28 137 29.7C182.7 31.3 228.3 31.7 274 31.5C319.7 31.3 365.3 30.7 411.2 31C457 31.3 503 32.7 548.8 30.7C594.7 28.7 640.3 23.3 686 21C731.7 18.7 777.3 19.3 823 21.5C868.7 23.7 914.3 27.3 937.2 29.2L960 31L960 0L937.2 0C914.3 0 868.7 0 823 0C777.3 0 731.7 0 686 0C640.3 0 594.7 0 548.8 0C503 0 457 0 411.2 0C365.3 0 319.7 0 274 0C228.3 0 182.7 0 137 0C91.3 0 45.7 0 22.8 0L0 0Z" fill="#5fcfeb"></path><path d="M0 11L22.8 13C45.7 15 91.3 19 137 20.8C182.7 22.7 228.3 22.3 274 21.3C319.7 20.3 365.3 18.7 411.2 18.3C457 18 503 19 548.8 19C594.7 19 640.3 18 686 18.5C731.7 19 777.3 21 823 21.5C868.7 22 914.3 21 937.2 20.5L960 20L960 0L937.2 0C914.3 0 868.7 0 823 0C777.3 0 731.7 0 686 0C640.3 0 594.7 0 548.8 0C503 0 457 0 411.2 0C365.3 0 319.7 0 274 0C228.3 0 182.7 0 137 0C91.3 0 45.7 0 22.8 0L0 0Z" fill="#00c7ec"></path></svg>