<svg id="visual" viewBox="0 0 960 200" width="960" height="200" xmlns="http://www.w3.org/2000/svg" xmlns:xlink="http://www.w3.org/1999/xlink" version="1.1"><path d="M0 116L22.8 120.7C45.7 125.3 91.3 134.7 137 137.7C182.7 140.7 228.3 137.3 274 132.8C319.7 128.3 365.3 122.7 411.2 120.2C457 117.7 503 118.3 548.8 120.8C594.7 123.3 640.3 127.7 686 127.7C731.7 127.7 777.3 123.3 823 121.3C868.7 119.3 914.3 119.7 937.2 119.8L960 120L960 201L937.2 201C914.3 201 868.7 201 823 201C777.3 201 731.7 201 686 201C640.3 201 594.7 201 548.8 201C503 201 457 201 411.2 201C365.3 201 319.7 201 274 201C228.3 201 182.7 201 137 201C91.3 201 45.7 201 22.8 201L0 201Z" fill="#eeded8"></path><path d="M0 134L22.8 136.8C45.7 139.7 91.3 145.3 137 147.5C182.7 149.7 228.3 148.3 274 145.2C319.7 142 365.3 137 411.2 137.7C457 138.3 503 144.7 548.8 148.2C594.7 151.7 640.3 152.3 686 151.8C731.7 151.3 777.3 149.7 823 149.8C868.7 150 914.3 152 937.2 153L960 154L960 201L937.2 201C914.3 201 868.7 201 823 201C777.3 201 731.7 201 686 201C640.3 201 594.7 201 548.8 201C503 201 457 201 411.2 201C365.3 201 319.7 201 274 201C228.3 201 182.7 201 137 201C91.3 201 45.7 201 22.8 201L0 201Z" fill="#e5b4a3"></path><path d="M0 152L22.8 154.2C45.7 156.3 91.3 160.7 137 161.5C182.7 162.3 228.3 159.7 274 159.5C319.7 159.3 365.3 161.7 411.2 160C457 158.3 503 152.7 548.8 150C594.7 147.3 640.3 147.7 686 148.7C731.7 149.7 777.3 151.3 823 153C868.7 154.7 914.3 156.3 937.2 157.2L960 158L960 201L937.2 201C914.3 201 868.7 201 823 201C777.3 201 731.7 201 686 201C640.3 201 594.7 201 548.8 201C503 201 457 201 411.2 201C365.3 201 319.7 201 274 201C228.3 201 182.7 201 137 201C91.3 201 45.7 201 22.8 201L0 201Z" fill="#d88974"></path><path d="M0 176L22.8 175.2C45.7 174.3 91.3 172.7 137 171.3C182.7 170 228.3 169 274 167.2C319.7 165.3 365.3 162.7 411.2 163.8C457 165 503 170 548.8 172C594.7 174 640.3 173 686 170.7C731.7 168.3 777.3 164.7 823 165.7C868.7 166.7 914.3 172.3 937.2 175.2L960 178L960 201L937.2 201C914.3 201 868.7 201 823 201C777.3 201 731.7 201 686 201C640.3 201 594.7 201 548.8 201C503 201 457 201 411.2 201C365.3 201 319.7 201 274 201C228.3 201 182.7 201 137 201C91.3 201 45.7 201 22.8 201L0 201Z" fill="#c85d4a"></path><path d="M0 186L22.8 186.5C45.7 187 91.3 188 137 186.3C182.7 184.7 228.3 180.3 274 180.7C319.7 181 365.3 186 411.2 188.5C457 191 503 191 548.8 189.2C594.7 187.3 640.3 183.7 686 181.8C731.7 180 777.3 180 823 179.8C868.7 179.7 914.3 179.3 937.2 179.2L960 179L960 201L937.2 201C914.3 201 868.7 201 823 201C777.3 201 731.7 201 686 201C640.3 201 594.7 201 548.8 201C503 201 457 201 411.2 201C365.3 201 319.7 201 274 201C228.3 201 182.7 201 137 201C91.3 201 45.7 201 22.8 201L0 201Z" fill="#b52725"></path></svg>