<svg id="visual" viewBox="0 0 960 200" width="960" height="200" xmlns="http://www.w3.org/2000/svg" xmlns:xlink="http://www.w3.org/1999/xlink" version="1.1"><path d="M0 132L22.8 131.7C45.7 131.3 91.3 130.7 137 131C182.7 131.3 228.3 132.7 274 130.5C319.7 128.3 365.3 122.7 411.2 123.5C457 124.3 503 131.7 548.8 135.2C594.7 138.7 640.3 138.3 686 138.8C731.7 139.3 777.3 140.7 823 140.3C868.7 140 914.3 138 937.2 137L960 136L960 201L937.2 201C914.3 201 868.7 201 823 201C777.3 201 731.7 201 686 201C640.3 201 594.7 201 548.8 201C503 201 457 201 411.2 201C365.3 201 319.7 201 274 201C228.3 201 182.7 201 137 201C91.3 201 45.7 201 22.8 201L0 201Z" fill="#c7e6ed"></path><path d="M0 155L22.8 151.8C45.7 148.7 91.3 142.3 137 141.7C182.7 141 228.3 146 274 149.5C319.7 153 365.3 155 411.2 155.2C457 155.3 503 153.7 548.8 150C594.7 146.3 640.3 140.7 686 139.8C731.7 139 777.3 143 823 146.8C868.7 150.7 914.3 154.3 937.2 156.2L960 158L960 201L937.2 201C914.3 201 868.7 201 823 201C777.3 201 731.7 201 686 201C640.3 201 594.7 201 548.8 201C503 201 457 201 411.2 201C365.3 201 319.7 201 274 201C228.3 201 182.7 201 137 201C91.3 201 45.7 201 22.8 201L0 201Z" fill="#9bc8d7"></path><path d="M0 168L22.8 166.5C45.7 165 91.3 162 137 158.7C182.7 155.3 228.3 151.7 274 149.7C319.7 147.7 365.3 147.3 411.2 146.8C457 146.3 503 145.7 548.8 145.3C594.7 145 640.3 145 686 146.8C731.7 148.7 777.3 152.3 823 152.3C868.7 152.3 914.3 148.7 937.2 146.8L960 145L960 201L937.2 201C914.3 201 868.7 201 823 201C777.3 201 731.7 201 686 201C640.3 201 594.7 201 548.8 201C503 201 457 201 411.2 201C365.3 201 319.7 201 274 201C228.3 201 182.7 201 137 201C91.3 201 45.7 201 22.8 201L0 201Z" fill="#70aac3"></path><path d="M0 177L22.8 176.7C45.7 176.3 91.3 175.7 137 175.2C182.7 174.7 228.3 174.3 274 173.3C319.7 172.3 365.3 170.7 411.2 169.8C457 169 503 169 548.8 168.7C594.7 168.3 640.3 167.7 686 169.3C731.7 171 777.3 175 823 176C868.7 177 914.3 175 937.2 174L960 173L960 201L937.2 201C914.3 201 868.7 201 823 201C777.3 201 731.7 201 686 201C640.3 201 594.7 201 548.8 201C503 201 457 201 411.2 201C365.3 201 319.7 201 274 201C228.3 201 182.7 201 137 201C91.3 201 45.7 201 22.8 201L0 201Z" fill="#448cb0"></path><path d="M0 176L22.8 178.2C45.7 180.3 91.3 184.7 137 186.2C182.7 187.7 228.3 186.3 274 185.2C319.7 184 365.3 183 411.2 183.8C457 184.7 503 187.3 548.8 186.3C594.7 185.3 640.3 180.7 686 178.5C731.7 176.3 777.3 176.7 823 176.8C868.7 177 914.3 177 937.2 177L960 177L960 201L937.2 201C914.3 201 868.7 201 823 201C777.3 201 731.7 201 686 201C640.3 201 594.7 201 548.8 201C503 201 457 201 411.2 201C365.3 201 319.7 201 274 201C228.3 201 182.7 201 137 201C91.3 201 45.7 201 22.8 201L0 201Z" fill="#036e9d"></path></svg>