<svg id="visual" viewBox="0 0 960 200" width="960" height="200" xmlns="http://www.w3.org/2000/svg" xmlns:xlink="http://www.w3.org/1999/xlink" version="1.1"><path d="M0 133L22.8 131C45.7 129 91.3 125 137 125.3C182.7 125.7 228.3 130.3 274 132.2C319.7 134 365.3 133 411.2 130.2C457 127.3 503 122.7 548.8 120.3C594.7 118 640.3 118 686 122.7C731.7 127.3 777.3 136.7 823 138.5C868.7 140.3 914.3 134.7 937.2 131.8L960 129L960 201L937.2 201C914.3 201 868.7 201 823 201C777.3 201 731.7 201 686 201C640.3 201 594.7 201 548.8 201C503 201 457 201 411.2 201C365.3 201 319.7 201 274 201C228.3 201 182.7 201 137 201C91.3 201 45.7 201 22.8 201L0 201Z" fill="#eeded8"></path><path d="M0 135L22.8 135.5C45.7 136 91.3 137 137 138.3C182.7 139.7 228.3 141.3 274 143.7C319.7 146 365.3 149 411.2 148C457 147 503 142 548.8 141.5C594.7 141 640.3 145 686 144.3C731.7 143.7 777.3 138.3 823 137.8C868.7 137.3 914.3 141.7 937.2 143.8L960 146L960 201L937.2 201C914.3 201 868.7 201 823 201C777.3 201 731.7 201 686 201C640.3 201 594.7 201 548.8 201C503 201 457 201 411.2 201C365.3 201 319.7 201 274 201C228.3 201 182.7 201 137 201C91.3 201 45.7 201 22.8 201L0 201Z" fill="#e5b4a3"></path><path d="M0 157L22.8 155.5C45.7 154 91.3 151 137 152.5C182.7 154 228.3 160 274 162C319.7 164 365.3 162 411.2 159.2C457 156.3 503 152.7 548.8 150.2C594.7 147.7 640.3 146.3 686 146.7C731.7 147 777.3 149 823 152.3C868.7 155.7 914.3 160.3 937.2 162.7L960 165L960 201L937.2 201C914.3 201 868.7 201 823 201C777.3 201 731.7 201 686 201C640.3 201 594.7 201 548.8 201C503 201 457 201 411.2 201C365.3 201 319.7 201 274 201C228.3 201 182.7 201 137 201C91.3 201 45.7 201 22.8 201L0 201Z" fill="#d88974"></path><path d="M0 178L22.8 175.5C45.7 173 91.3 168 137 166.7C182.7 165.3 228.3 167.7 274 170.2C319.7 172.7 365.3 175.3 411.2 174.5C457 173.7 503 169.3 548.8 168.8C594.7 168.3 640.3 171.7 686 171C731.7 170.3 777.3 165.7 823 164.5C868.7 163.3 914.3 165.7 937.2 166.8L960 168L960 201L937.2 201C914.3 201 868.7 201 823 201C777.3 201 731.7 201 686 201C640.3 201 594.7 201 548.8 201C503 201 457 201 411.2 201C365.3 201 319.7 201 274 201C228.3 201 182.7 201 137 201C91.3 201 45.7 201 22.8 201L0 201Z" fill="#c85d4a"></path><path d="M0 190L22.8 189.2C45.7 188.3 91.3 186.7 137 186.8C182.7 187 228.3 189 274 189C319.7 189 365.3 187 411.2 186.3C457 185.7 503 186.3 548.8 184.7C594.7 183 640.3 179 686 177.3C731.7 175.7 777.3 176.3 823 177C868.7 177.7 914.3 178.3 937.2 178.7L960 179L960 201L937.2 201C914.3 201 868.7 201 823 201C777.3 201 731.7 201 686 201C640.3 201 594.7 201 548.8 201C503 201 457 201 411.2 201C365.3 201 319.7 201 274 201C228.3 201 182.7 201 137 201C91.3 201 45.7 201 22.8 201L0 201Z" fill="#b52725"></path></svg>