<svg id="visual" viewBox="0 0 960 200" width="960" height="200" xmlns="http://www.w3.org/2000/svg" xmlns:xlink="http://www.w3.org/1999/xlink" version="1.1"><path d="M0 54L22.8 57.3C45.7 60.7 91.3 67.3 137 71.2C182.7 75 228.3 76 274 76.3C319.7 76.7 365.3 76.3 411.2 71.8C457 67.3 503 58.7 548.8 56.5C594.7 54.3 640.3 58.7 686 58.8C731.7 59 777.3 55 823 57.8C868.7 60.7 914.3 70.3 937.2 75.2L960 80L960 0L937.2 0C914.3 0 868.7 0 823 0C777.3 0 731.7 0 686 0C640.3 0 594.7 0 548.8 0C503 0 457 0 411.2 0C365.3 0 319.7 0 274 0C228.3 0 182.7 0 137 0C91.3 0 45.7 0 22.8 0L0 0Z" fill="#eeded8"></path><path d="M0 48L22.8 49.8C45.7 51.7 91.3 55.3 137 56.3C182.7 57.3 228.3 55.7 274 54.8C319.7 54 365.3 54 411.2 53.3C457 52.7 503 51.3 548.8 49.2C594.7 47 640.3 44 686 45.2C731.7 46.3 777.3 51.7 823 53.2C868.7 54.7 914.3 52.3 937.2 51.2L960 50L960 0L937.2 0C914.3 0 868.7 0 823 0C777.3 0 731.7 0 686 0C640.3 0 594.7 0 548.8 0C503 0 457 0 411.2 0C365.3 0 319.7 0 274 0C228.3 0 182.7 0 137 0C91.3 0 45.7 0 22.8 0L0 0Z" fill="#e5b4a3"></path><path d="M0 44L22.8 43.3C45.7 42.7 91.3 41.3 137 40.3C182.7 39.3 228.3 38.7 274 38.3C319.7 38 365.3 38 411.2 36.7C457 35.3 503 32.7 548.8 32.7C594.7 32.7 640.3 35.3 686 37.5C731.7 39.7 777.3 41.3 823 43.5C868.7 45.7 914.3 48.3 937.2 49.7L960 51L960 0L937.2 0C914.3 0 868.7 0 823 0C777.3 0 731.7 0 686 0C640.3 0 594.7 0 548.8 0C503 0 457 0 411.2 0C365.3 0 319.7 0 274 0C228.3 0 182.7 0 137 0C91.3 0 45.7 0 22.8 0L0 0Z" fill="#d88974"></path><path d="M0 25L22.8 27.2C45.7 29.3 91.3 33.7 137 32.5C182.7 31.3 228.3 24.7 274 21.8C319.7 19 365.3 20 411.2 22.5C457 25 503 29 548.8 30.2C594.7 31.3 640.3 29.7 686 30.3C731.7 31 777.3 34 823 32.7C868.7 31.3 914.3 25.7 937.2 22.8L960 20L960 0L937.2 0C914.3 0 868.7 0 823 0C777.3 0 731.7 0 686 0C640.3 0 594.7 0 548.8 0C503 0 457 0 411.2 0C365.3 0 319.7 0 274 0C228.3 0 182.7 0 137 0C91.3 0 45.7 0 22.8 0L0 0Z" fill="#c85d4a"></path><path d="M0 15L22.8 14.3C45.7 13.7 91.3 12.3 137 13.7C182.7 15 228.3 19 274 18.7C319.7 18.3 365.3 13.7 411.2 12.3C457 11 503 13 548.8 13.5C594.7 14 640.3 13 686 13.2C731.7 13.3 777.3 14.7 823 15C868.7 15.3 914.3 14.7 937.2 14.3L960 14L960 0L937.2 0C914.3 0 868.7 0 823 0C777.3 0 731.7 0 686 0C640.3 0 594.7 0 548.8 0C503 0 457 0 411.2 0C365.3 0 319.7 0 274 0C228.3 0 182.7 0 137 0C91.3 0 45.7 0 22.8 0L0 0Z" fill="#b52725"></path></svg>