<svg id="visual" viewBox="0 0 960 200" width="960" height="200" xmlns="http://www.w3.org/2000/svg" xmlns:xlink="http://www.w3.org/1999/xlink" version="1.1"><path d="M0 119L22.8 119.8C45.7 120.7 91.3 122.3 137 123.5C182.7 124.7 228.3 125.3 274 129.3C319.7 133.3 365.3 140.7 411.2 140.5C457 140.3 503 132.7 548.8 130.3C594.7 128 640.3 131 686 134.8C731.7 138.7 777.3 143.3 823 140.8C868.7 138.3 914.3 128.7 937.2 123.8L960 119L960 201L937.2 201C914.3 201 868.7 201 823 201C777.3 201 731.7 201 686 201C640.3 201 594.7 201 548.8 201C503 201 457 201 411.2 201C365.3 201 319.7 201 274 201C228.3 201 182.7 201 137 201C91.3 201 45.7 201 22.8 201L0 201Z" fill="#c7e6ed"></path><path d="M0 138L22.8 140.5C45.7 143 91.3 148 137 148.5C182.7 149 228.3 145 274 145.3C319.7 145.7 365.3 150.3 411.2 151.2C457 152 503 149 548.8 145.5C594.7 142 640.3 138 686 138.7C731.7 139.3 777.3 144.7 823 146.7C868.7 148.7 914.3 147.3 937.2 146.7L960 146L960 201L937.2 201C914.3 201 868.7 201 823 201C777.3 201 731.7 201 686 201C640.3 201 594.7 201 548.8 201C503 201 457 201 411.2 201C365.3 201 319.7 201 274 201C228.3 201 182.7 201 137 201C91.3 201 45.7 201 22.8 201L0 201Z" fill="#a9dfec"></path><path d="M0 156L22.8 157.5C45.7 159 91.3 162 137 161.2C182.7 160.3 228.3 155.7 274 153C319.7 150.3 365.3 149.7 411.2 150.7C457 151.7 503 154.3 548.8 155.8C594.7 157.3 640.3 157.7 686 156.3C731.7 155 777.3 152 823 152.3C868.7 152.7 914.3 156.3 937.2 158.2L960 160L960 201L937.2 201C914.3 201 868.7 201 823 201C777.3 201 731.7 201 686 201C640.3 201 594.7 201 548.8 201C503 201 457 201 411.2 201C365.3 201 319.7 201 274 201C228.3 201 182.7 201 137 201C91.3 201 45.7 201 22.8 201L0 201Z" fill="#88d7eb"></path><path d="M0 175L22.8 175.7C45.7 176.3 91.3 177.7 137 175.7C182.7 173.7 228.3 168.3 274 165.3C319.7 162.3 365.3 161.7 411.2 163C457 164.3 503 167.7 548.8 169.2C594.7 170.7 640.3 170.3 686 171.7C731.7 173 777.3 176 823 176C868.7 176 914.3 173 937.2 171.5L960 170L960 201L937.2 201C914.3 201 868.7 201 823 201C777.3 201 731.7 201 686 201C640.3 201 594.7 201 548.8 201C503 201 457 201 411.2 201C365.3 201 319.7 201 274 201C228.3 201 182.7 201 137 201C91.3 201 45.7 201 22.8 201L0 201Z" fill="#5fcfeb"></path><path d="M0 182L22.8 181C45.7 180 91.3 178 137 177.3C182.7 176.7 228.3 177.3 274 179.5C319.7 181.7 365.3 185.3 411.2 184.7C457 184 503 179 548.8 178C594.7 177 640.3 180 686 182.8C731.7 185.7 777.3 188.3 823 186.8C868.7 185.3 914.3 179.7 937.2 176.8L960 174L960 201L937.2 201C914.3 201 868.7 201 823 201C777.3 201 731.7 201 686 201C640.3 201 594.7 201 548.8 201C503 201 457 201 411.2 201C365.3 201 319.7 201 274 201C228.3 201 182.7 201 137 201C91.3 201 45.7 201 22.8 201L0 201Z" fill="#00c7ec"></path></svg>