<svg id="visual" viewBox="0 0 960 200" width="960" height="200" xmlns="http://www.w3.org/2000/svg" xmlns:xlink="http://www.w3.org/1999/xlink" version="1.1"><path d="M0 121L22.8 123.5C45.7 126 91.3 131 137 134.5C182.7 138 228.3 140 274 139.8C319.7 139.7 365.3 137.3 411.2 135.7C457 134 503 133 548.8 132.5C594.7 132 640.3 132 686 133.7C731.7 135.3 777.3 138.7 823 140C868.7 141.3 914.3 140.7 937.2 140.3L960 140L960 201L937.2 201C914.3 201 868.7 201 823 201C777.3 201 731.7 201 686 201C640.3 201 594.7 201 548.8 201C503 201 457 201 411.2 201C365.3 201 319.7 201 274 201C228.3 201 182.7 201 137 201C91.3 201 45.7 201 22.8 201L0 201Z" fill="#c7e6ed"></path><path d="M0 134L22.8 137.3C45.7 140.7 91.3 147.3 137 147.3C182.7 147.3 228.3 140.7 274 141.3C319.7 142 365.3 150 411.2 152.8C457 155.7 503 153.3 548.8 152.3C594.7 151.3 640.3 151.7 686 153C731.7 154.3 777.3 156.7 823 153.7C868.7 150.7 914.3 142.3 937.2 138.2L960 134L960 201L937.2 201C914.3 201 868.7 201 823 201C777.3 201 731.7 201 686 201C640.3 201 594.7 201 548.8 201C503 201 457 201 411.2 201C365.3 201 319.7 201 274 201C228.3 201 182.7 201 137 201C91.3 201 45.7 201 22.8 201L0 201Z" fill="#a9dfec"></path><path d="M0 146L22.8 148C45.7 150 91.3 154 137 155.5C182.7 157 228.3 156 274 157.8C319.7 159.7 365.3 164.3 411.2 165.2C457 166 503 163 548.8 159.5C594.7 156 640.3 152 686 153.3C731.7 154.7 777.3 161.3 823 165C868.7 168.7 914.3 169.3 937.2 169.7L960 170L960 201L937.2 201C914.3 201 868.7 201 823 201C777.3 201 731.7 201 686 201C640.3 201 594.7 201 548.8 201C503 201 457 201 411.2 201C365.3 201 319.7 201 274 201C228.3 201 182.7 201 137 201C91.3 201 45.7 201 22.8 201L0 201Z" fill="#88d7eb"></path><path d="M0 170L22.8 169.8C45.7 169.7 91.3 169.3 137 169.3C182.7 169.3 228.3 169.7 274 169.7C319.7 169.7 365.3 169.3 411.2 169.3C457 169.3 503 169.7 548.8 169.2C594.7 168.7 640.3 167.3 686 167.8C731.7 168.3 777.3 170.7 823 170.8C868.7 171 914.3 169 937.2 168L960 167L960 201L937.2 201C914.3 201 868.7 201 823 201C777.3 201 731.7 201 686 201C640.3 201 594.7 201 548.8 201C503 201 457 201 411.2 201C365.3 201 319.7 201 274 201C228.3 201 182.7 201 137 201C91.3 201 45.7 201 22.8 201L0 201Z" fill="#5fcfeb"></path><path d="M0 180L22.8 181.5C45.7 183 91.3 186 137 185.2C182.7 184.3 228.3 179.7 274 179.3C319.7 179 365.3 183 411.2 185C457 187 503 187 548.8 187.2C594.7 187.3 640.3 187.7 686 187.7C731.7 187.7 777.3 187.3 823 186.5C868.7 185.7 914.3 184.3 937.2 183.7L960 183L960 201L937.2 201C914.3 201 868.7 201 823 201C777.3 201 731.7 201 686 201C640.3 201 594.7 201 548.8 201C503 201 457 201 411.2 201C365.3 201 319.7 201 274 201C228.3 201 182.7 201 137 201C91.3 201 45.7 201 22.8 201L0 201Z" fill="#00c7ec"></path></svg>